<svg width="123" height="70" viewBox="0 0 123 70" fill="none" xmlns="http://www.w3.org/2000/svg">
<path d="M0.5 70V0.181816H30.6364C35.8182 0.181816 40.3523 1.125 44.2386 3.01136C48.125 4.89773 51.1477 7.61364 53.3068 11.1591C55.4659 14.7045 56.5455 18.9545 56.5455 23.9091C56.5455 28.9091 55.4318 33.125 53.2045 36.5568C51 39.9886 47.8977 42.5795 43.8977 44.3295C39.9205 46.0795 35.2727 46.9545 29.9545 46.9545H11.9545V32.2273H26.1364C28.3636 32.2273 30.2614 31.9545 31.8295 31.4091C33.4205 30.8409 34.6364 29.9432 35.4773 28.7159C36.3409 27.4886 36.7727 25.8864 36.7727 23.9091C36.7727 21.9091 36.3409 20.2841 35.4773 19.0341C34.6364 17.7614 33.4205 16.8295 31.8295 16.2386C30.2614 15.625 28.3636 15.3182 26.1364 15.3182H19.4545V70H0.5ZM41.4091 37.9545L58.8636 70H38.2727L21.2273 37.9545H41.4091ZM64.625 70V0.181816H94.7614C99.9432 0.181816 104.477 1.125 108.364 3.01136C112.25 4.89773 115.273 7.61364 117.432 11.1591C119.591 14.7045 120.67 18.9545 120.67 23.9091C120.67 28.9091 119.557 33.125 117.33 36.5568C115.125 39.9886 112.023 42.5795 108.023 44.3295C104.045 46.0795 99.3977 46.9545 94.0795 46.9545H76.0795V32.2273H90.2614C92.4886 32.2273 94.3864 31.9545 95.9545 31.4091C97.5455 30.8409 98.7614 29.9432 99.6023 28.7159C100.466 27.4886 100.898 25.8864 100.898 23.9091C100.898 21.9091 100.466 20.2841 99.6023 19.0341C98.7614 17.7614 97.5455 16.8295 95.9545 16.2386C94.3864 15.625 92.4886 15.3182 90.2614 15.3182H83.5795V70H64.625ZM105.534 37.9545L122.989 70H102.398L85.3523 37.9545H105.534Z" fill="url(#paint0_linear_3_2)"/>
<defs>
<linearGradient id="paint0_linear_3_2" x1="-4" y1="93" x2="125" y2="93" gradientUnits="userSpaceOnUse">
<stop stop-color="#B07070"/>
<stop offset="0.496124" stop-color="#3B82F6"/>
<stop offset="1" stop-color="#8B5CF6"/>
</linearGradient>
</defs>
</svg>
